<svg width="32" height="32" viewBox="0 0 32 32" fill="none" xmlns="http://www.w3.org/2000/svg">
<path d="M15.9995 23.4607C17.0086 23.4607 17.9301 23.3508 18.7706 23.1609L16.8966 21.2868C16.6054 21.3092 16.3099 21.3274 15.9995 21.3274C10.2919 21.3274 8.08076 17.225 7.54531 15.9941C7.94737 15.0969 8.4904 14.2697 9.1538 13.544L7.66264 12.0528C6.02214 13.8309 5.40029 15.6219 5.38856 15.6571C5.31498 15.8761 5.31498 16.1132 5.38856 16.3322C5.41096 16.4026 7.85783 23.4607 15.9995 23.4607ZM15.9995 8.52756C14.0401 8.52756 12.4305 8.94995 11.0887 9.57394L7.15385 5.64014L5.64562 7.14838L24.8452 26.3481L26.3534 24.8398L22.8132 21.2996C25.6014 19.2186 26.5966 16.377 26.6115 16.3322C26.6851 16.1132 26.6851 15.8761 26.6115 15.6571C26.5881 15.5856 24.1412 8.52756 15.9995 8.52756ZM21.3029 19.7893L18.8709 17.3573C19.0736 16.9413 19.1994 16.4837 19.1994 15.9941C19.1994 14.2437 17.7499 12.7942 15.9995 12.7942C15.5099 12.7942 15.0523 12.92 14.6374 13.1238L12.7089 11.1953C13.7676 10.832 14.8803 10.6513 15.9995 10.6609C21.7071 10.6609 23.9183 14.7632 24.4537 15.9941C24.1316 16.7322 23.21 18.4922 21.3029 19.7893Z" fill="#767676"/>
</svg>
