<svg width="32" height="32" viewBox="0 0 32 32" fill="none" xmlns="http://www.w3.org/2000/svg">
<path d="M16 12.8174C15.1575 12.8229 14.3512 13.1601 13.7555 13.7557C13.1598 14.3514 12.8227 15.1578 12.8171 16.0002C12.8171 17.7422 14.2579 19.183 16 19.183C17.7409 19.183 19.1828 17.7422 19.1828 16.0002C19.1828 14.2592 17.7409 12.8174 16 12.8174Z" fill="#767676"/>
<path d="M16 8.57324C7.90183 8.57324 5.46804 15.5934 5.44576 15.6645L5.3333 15.9998L5.4447 16.335C5.46804 16.4061 7.90183 23.4263 16 23.4263C24.0981 23.4263 26.5319 16.4061 26.5542 16.335L26.6666 15.9998L26.5552 15.6645C26.5319 15.5934 24.0981 8.57324 16 8.57324ZM16 21.3044C10.3229 21.3044 8.12356 17.2241 7.59097 15.9998C8.12568 14.7712 10.3261 10.6951 16 10.6951C21.677 10.6951 23.8764 14.7755 24.409 15.9998C23.8742 17.2283 21.6739 21.3044 16 21.3044Z" fill="#767676"/>
</svg>
