<svg width="480" height="511" viewBox="0 0 480 511" fill="none" xmlns="http://www.w3.org/2000/svg">
<g clip-path="url(#clip0_42_7425)">
<path d="M105.404 0.616211H367.619C374.232 0.616211 379.603 5.9867 379.603 12.6002V323.002C379.603 329.615 374.232 334.986 367.619 334.986H105.404C98.7902 334.986 93.4197 329.615 93.4197 323.002V12.603C93.4197 5.98949 98.7902 0.618998 105.404 0.618998V0.616211Z" fill="white"/>
<path d="M367.618 335.604H105.403C98.4555 335.604 92.8008 329.952 92.8008 323.002V12.6027C92.8008 5.65476 98.4528 0 105.403 0H367.618C374.566 0 380.221 5.65198 380.221 12.6027V323.004C380.221 329.952 374.569 335.607 367.618 335.607V335.604ZM105.403 1.23463C99.1356 1.23463 94.0354 6.33479 94.0354 12.6027V323.004C94.0354 329.272 99.1356 334.372 105.403 334.372H367.618C373.886 334.372 378.986 329.272 378.986 323.004V12.6027C378.986 6.33479 373.886 1.23463 367.618 1.23463H105.403Z" fill="black"/>
<path d="M379.603 120.453C379.263 120.453 378.987 120.177 378.987 119.837V82.1267C378.987 81.7866 379.263 81.5107 379.603 81.5107C379.943 81.5107 380.218 81.7866 380.218 82.1267V119.837C380.218 120.177 379.943 120.453 379.603 120.453Z" fill="black"/>
<path d="M256.195 17.1738H109.319V318.429H256.195V17.1738Z" fill="white"/>
<path d="M256.195 319.047H109.319C108.979 319.047 108.703 318.771 108.703 318.431V17.1735C108.703 16.8335 108.979 16.5576 109.319 16.5576H256.195C256.535 16.5576 256.811 16.8335 256.811 17.1735V318.428C256.811 318.768 256.535 319.044 256.195 319.044V319.047ZM109.935 317.812H255.576V17.7922H109.935V317.812Z" fill="black"/>
<path d="M363.702 17.1738H271.336V318.429H363.702V17.1738Z" fill="white"/>
<path d="M363.702 319.047H271.336C270.996 319.047 270.72 318.771 270.72 318.431V17.1735C270.72 16.8335 270.996 16.5576 271.336 16.5576H363.702C364.042 16.5576 364.318 16.8335 364.318 17.1735V318.428C364.318 318.768 364.042 319.044 363.702 319.044V319.047ZM271.952 317.812H363.083V17.7922H271.952V317.812Z" fill="black"/>
<path d="M398.907 338.689H66.5415V351.824H398.907V338.689Z" fill="white"/>
<path d="M398.91 352.443H66.5415C66.2014 352.443 65.9255 352.167 65.9255 351.827V338.692C65.9255 338.352 66.2014 338.076 66.5415 338.076H398.907C399.247 338.076 399.523 338.352 399.523 338.692V351.827C399.523 352.167 399.247 352.443 398.907 352.443H398.91ZM67.1602 351.208H398.291V339.308H67.1602V351.208Z" fill="black"/>
<path d="M361.506 305.426C360.59 305.12 359.6 304.953 358.555 304.953H356.141V298.136H314.223V322.577C314.223 332.237 322.051 340.068 331.708 340.068H338.656C347.847 340.068 355.375 332.973 356.083 323.96H358.558C363.747 323.96 367.596 319.492 367.596 314.303V314.23C367.596 310.086 365.143 306.644 361.512 305.426H361.506ZM358.204 318.531H356.139V310.384H358.204C360.428 310.384 362.228 312.235 362.228 314.459C362.228 316.683 360.425 318.534 358.204 318.534V318.531Z" fill="white"/>
<path d="M338.653 340.687H331.705C321.722 340.687 313.601 332.563 313.601 322.578V298.136C313.601 297.796 313.877 297.52 314.217 297.52H356.136C356.476 297.52 356.752 297.796 356.752 298.136V304.334H358.549C359.639 304.334 360.698 304.504 361.699 304.839C365.651 306.165 368.203 309.85 368.203 314.228V314.3C368.203 319.966 363.872 324.576 358.549 324.576H356.637C355.634 333.653 347.842 340.685 338.648 340.685L338.653 340.687ZM314.839 298.755V322.578C314.839 331.883 322.405 339.453 331.708 339.453H338.656C347.401 339.453 354.784 332.627 355.467 323.915C355.492 323.595 355.76 323.347 356.083 323.347H358.558C363.279 323.347 366.977 319.375 366.977 314.306V314.233C366.977 310.396 364.753 307.169 361.314 306.015C360.442 305.722 359.514 305.574 358.558 305.574H356.144C355.804 305.574 355.528 305.298 355.528 304.958V298.76H314.844L314.839 298.755ZM358.204 319.15H356.139C355.799 319.15 355.523 318.874 355.523 318.534V310.387C355.523 310.047 355.799 309.772 356.139 309.772H358.204C360.765 309.772 362.847 311.876 362.847 314.462C362.847 317.048 360.765 319.152 358.204 319.152V319.15ZM356.757 317.915H358.204C360.082 317.915 361.612 316.365 361.612 314.459C361.612 312.553 360.082 311.003 358.204 311.003H356.757V317.915Z" fill="black"/>
<path d="M338.653 340.687H331.705C321.722 340.687 313.601 332.563 313.601 322.578V298.136C313.601 297.796 313.877 297.52 314.217 297.52C314.557 297.52 314.833 297.796 314.833 298.136V322.578C314.833 331.883 322.4 339.453 331.702 339.453H338.65C347.396 339.453 354.779 332.627 355.461 323.915C355.486 323.595 355.754 323.347 356.077 323.347H358.552C363.273 323.347 366.972 319.375 366.972 314.306V314.233C366.972 312.461 366.492 310.775 365.584 309.356C365.4 309.069 365.483 308.687 365.77 308.503C366.057 308.32 366.439 308.403 366.623 308.69C367.66 310.307 368.206 312.224 368.206 314.233V314.306C368.206 319.972 363.875 324.581 358.552 324.581H356.64C355.637 333.659 347.845 340.69 338.65 340.69L338.653 340.687ZM358.031 319.15H356.704C356.052 319.15 355.523 318.62 355.523 317.968V310.95C355.523 310.298 356.052 309.769 356.704 309.769H358.204C359.505 309.769 360.759 310.332 361.64 311.316C362.535 312.313 362.964 313.648 362.816 314.978C362.557 317.355 360.497 319.15 358.028 319.15H358.031ZM356.757 317.915H358.031C359.84 317.915 361.403 316.566 361.59 314.844C361.699 313.86 361.381 312.876 360.72 312.14C360.071 311.419 359.154 311.003 358.201 311.003H356.755V317.915H356.757ZM361.506 306.045C361.442 306.045 361.375 306.034 361.311 306.012C360.439 305.719 359.511 305.572 358.555 305.572H356.707C356.055 305.572 355.525 305.042 355.525 304.39V298.757H321.502C321.162 298.757 320.886 298.482 320.886 298.142C320.886 297.801 321.162 297.526 321.502 297.526H355.576C356.228 297.526 356.757 298.055 356.757 298.707V304.34H358.555C359.645 304.34 360.704 304.51 361.704 304.844C362.027 304.953 362.2 305.301 362.094 305.625C362.008 305.884 361.768 306.045 361.509 306.045H361.506Z" fill="black"/>
<path d="M335.229 325.355C339.534 325.343 343.015 321.842 343.003 317.536C342.991 313.229 339.491 309.747 335.186 309.759C330.881 309.772 327.4 313.272 327.412 317.579C327.424 321.886 330.924 325.367 335.229 325.355Z" fill="white"/>
<path d="M335.18 326.003C330.54 326.003 326.767 322.226 326.767 317.586C326.767 312.946 330.54 309.169 335.18 309.169C339.821 309.169 343.594 312.946 343.594 317.586C343.594 322.226 339.821 326.003 335.18 326.003ZM335.18 310.407C331.223 310.407 328.001 313.629 328.001 317.589C328.001 321.549 331.22 324.771 335.18 324.771C339.141 324.771 342.36 321.549 342.36 317.589C342.36 313.629 339.141 310.407 335.18 310.407Z" fill="black"/>
<path d="M336.732 291.486C336.618 291.486 336.504 291.455 336.401 291.389C336.303 291.327 334.015 289.828 333.449 287.072C333.07 285.218 333.558 283.273 334.904 281.286C338.555 275.893 337.362 273.513 336.097 270.993L335.994 270.787C335.84 270.483 335.966 270.113 336.27 269.96C336.576 269.806 336.944 269.932 337.097 270.235L337.2 270.439C338.505 273.039 339.985 275.988 335.927 281.98C334.778 283.674 334.352 285.302 334.656 286.812C335.11 289.056 337.05 290.341 337.069 290.352C337.354 290.539 337.437 290.92 337.251 291.205C337.133 291.389 336.933 291.486 336.732 291.486Z" fill="black"/>
<path d="M406.658 88.3275H382.272C379.594 71.2155 364.789 58.1251 346.925 58.1251C342.329 58.1251 337.942 59.0002 333.907 60.5776C324.813 44.1596 307.319 33.0396 287.222 33.0396C257.764 33.0396 233.885 56.9183 233.885 86.3766C233.885 87.0315 233.91 87.6781 233.935 88.3275H231.458C210.898 88.3275 194.232 104.994 194.232 125.553C194.232 146.113 210.898 162.779 231.458 162.779H406.658C427.217 162.779 443.883 146.113 443.883 125.553C443.883 104.994 427.217 88.3275 406.658 88.3275Z" fill="white"/>
<path d="M410.643 158.897H235.443C214.577 158.897 197.602 141.921 197.602 121.055C197.602 100.189 214.577 83.2136 235.443 83.2136H237.28C237.266 82.7704 237.252 82.3273 237.252 81.8786C237.252 52.1277 261.457 27.9229 291.208 27.9229C310.641 27.9229 328.586 38.4019 338.171 55.3104C342.257 53.7804 346.54 53.0056 350.91 53.0056C359.639 53.0056 368.081 56.1437 374.68 61.8403C381.076 67.3613 385.36 74.9335 386.781 83.208H410.643C431.509 83.208 448.485 100.183 448.485 121.049C448.485 141.916 431.509 158.891 410.643 158.891V158.897ZM235.443 84.4454C215.257 84.4454 198.833 100.869 198.833 121.055C198.833 141.241 215.257 157.665 235.443 157.665H410.643C430.829 157.665 447.253 141.241 447.253 121.055C447.253 100.869 430.829 84.4454 410.643 84.4454H386.257C385.953 84.4454 385.694 84.2252 385.647 83.9242C382.955 66.7258 368.345 54.243 350.91 54.243C346.512 54.243 342.209 55.054 338.118 56.6537C337.828 56.7652 337.502 56.6482 337.354 56.3778C328.054 39.5863 310.374 29.1575 291.21 29.1575C262.139 29.1575 238.489 52.8077 238.489 81.8786C238.489 82.475 238.512 83.0686 238.534 83.6595L238.539 83.8072C238.545 83.9744 238.484 84.136 238.367 84.2587C238.25 84.3785 238.091 84.4482 237.923 84.4482H235.446L235.443 84.4454Z" fill="black"/>
<path d="M284.558 465.503C284.558 465.503 298.85 494.351 314.908 508.216C317.617 510.554 321.834 509.264 322.845 505.833C323.428 503.849 324.002 501.204 324.473 497.681C326.24 484.51 314.392 450.213 314.392 450.213L309.117 448.513C307.266 447.917 305.304 449.049 304.894 450.952L304.343 453.522L298 447.937C296.556 446.666 294.337 446.855 293.145 448.366C290.72 451.437 286.958 457.17 284.555 465.503H284.558Z" fill="white"/>
<path d="M318.085 510.016C316.787 510.016 315.519 509.556 314.507 508.681C298.538 494.894 284.151 466.066 284.006 465.776C283.937 465.637 283.923 465.48 283.967 465.33C286.342 457.089 290.007 451.348 292.665 447.981C293.345 447.12 294.324 446.59 295.419 446.49C296.517 446.39 297.584 446.738 298.412 447.468L303.967 452.357L304.298 450.815C304.53 449.74 305.21 448.806 306.163 448.254C307.116 447.702 308.267 447.583 309.312 447.92L314.588 449.62C314.772 449.678 314.919 449.823 314.981 450.004C315.466 451.409 326.856 484.591 325.089 497.756C324.654 500.984 324.102 503.757 323.442 506C322.904 507.831 321.488 509.244 319.657 509.785C319.139 509.938 318.612 510.011 318.088 510.011L318.085 510.016ZM285.219 465.441C286.565 468.103 300.254 494.746 315.312 507.748C316.427 508.712 317.885 509.024 319.306 508.606C320.733 508.185 321.834 507.084 322.255 505.657C322.898 503.472 323.439 500.761 323.863 497.597C325.507 485.357 315.05 454.062 313.911 450.704L308.93 449.099C308.214 448.867 307.428 448.951 306.776 449.327C306.124 449.703 305.658 450.342 305.502 451.077L304.95 453.647C304.906 453.862 304.75 454.034 304.541 454.104C304.332 454.171 304.103 454.126 303.939 453.981L297.596 448.396C297.021 447.892 296.286 447.652 295.528 447.719C294.775 447.786 294.101 448.151 293.632 448.745C291.068 451.994 287.537 457.518 285.219 465.441Z" fill="black"/>
<path d="M319.376 505.37C319.217 505.37 319.058 505.309 318.938 505.189C302.609 488.791 288.939 463.123 288.803 462.866C288.644 462.565 288.758 462.192 289.059 462.033C289.36 461.874 289.733 461.988 289.892 462.289C290.029 462.546 303.615 488.052 319.81 504.32C320.05 504.562 320.05 504.952 319.81 505.192C319.691 505.312 319.532 505.373 319.376 505.373V505.37Z" fill="black"/>
<path d="M312.414 482.846C312.155 482.846 311.912 482.682 311.828 482.423C311.723 482.099 311.898 481.751 312.221 481.642L320.761 478.83C321.084 478.722 321.432 478.9 321.541 479.223C321.647 479.547 321.471 479.895 321.148 480.004L312.609 482.816C312.545 482.838 312.481 482.846 312.416 482.846H312.414Z" fill="black"/>
<path d="M306.798 473.724C306.539 473.724 306.297 473.56 306.213 473.301C306.107 472.977 306.283 472.629 306.606 472.52L317.336 468.986C317.659 468.881 318.008 469.056 318.116 469.379C318.222 469.703 318.047 470.051 317.723 470.16L306.994 473.694C306.929 473.716 306.865 473.724 306.801 473.724H306.798Z" fill="black"/>
<path d="M167.851 248.879C168.949 247.723 247.252 213.894 279.257 206.701C311.263 199.505 323.188 199.438 334.08 217.729C344.971 236.02 281.618 335.827 281.618 335.827L146.843 300.697L167.854 248.879H167.851Z" fill="black"/>
<path d="M243.698 287.426C243.615 287.426 243.528 287.409 243.447 287.373C243.135 287.234 242.996 286.868 243.135 286.556C258.191 252.951 283.048 228.941 283.296 228.702C283.541 228.465 283.931 228.473 284.168 228.721C284.405 228.966 284.396 229.359 284.148 229.593C283.9 229.83 259.213 253.684 244.261 287.061C244.158 287.289 243.932 287.426 243.698 287.426Z" fill="white"/>
<path d="M103.787 293.585C103.787 293.585 107.335 329.964 115.202 337.527C123.07 345.094 217.473 337.527 217.473 337.527C217.473 337.527 224.976 349.818 229.878 382.668C234.78 415.518 240.248 459.742 248.369 470.53L319.058 455.269C319.058 455.269 295.611 314.552 279.327 295.413C263.043 276.275 144.56 273.271 144.56 273.271L103.787 293.582V293.585Z" fill="black"/>
<path d="M287.504 313.295C287.248 313.295 287.011 313.136 286.922 312.879C283.959 304.362 281.245 298.621 278.859 295.815C273.343 289.332 248.907 283.427 208.195 278.733C207.858 278.694 207.613 278.388 207.652 278.051C207.691 277.71 208.003 277.471 208.335 277.507C249.95 282.303 273.996 288.195 279.798 295.015C282.284 297.938 285.074 303.81 288.087 312.472C288.198 312.796 288.028 313.147 287.708 313.258C287.641 313.281 287.571 313.292 287.504 313.292V313.295Z" fill="white"/>
<path d="M234.618 174.487C232.11 172.653 228.579 173.291 226.873 175.888C218.064 189.316 193.694 226.508 193.407 227.428L205.62 229.15L235.987 181.808C237.536 179.392 236.937 176.184 234.618 174.489V174.487Z" fill="white"/>
<path d="M205.62 229.766C205.592 229.766 205.561 229.766 205.533 229.761L193.321 228.038C193.143 228.013 192.981 227.91 192.886 227.757C192.789 227.604 192.763 227.417 192.819 227.244C193.101 226.35 211.213 198.639 226.358 175.551C227.275 174.152 228.685 173.219 230.332 172.92C231.979 172.622 233.632 173.001 234.983 173.991C237.561 175.875 238.23 179.453 236.505 182.14L206.138 229.482C206.024 229.66 205.826 229.766 205.62 229.766ZM194.394 226.943L205.313 228.482L235.465 181.471C236.837 179.333 236.304 176.482 234.253 174.983C233.177 174.197 231.862 173.893 230.549 174.13C229.239 174.367 228.119 175.111 227.386 176.223C208.761 204.614 196.743 223.089 194.391 226.938L194.394 226.943Z" fill="black"/>
<path d="M68.6042 286.584C68.6042 286.584 55.9207 268.856 61.1128 229.148C66.3077 189.439 79.0135 168.826 92.3102 164.116C105.604 159.406 160.29 168.007 164.56 234.724L68.6042 286.584Z" fill="white"/>
<path d="M68.6041 287.203C68.4118 287.203 68.2222 287.111 68.1024 286.944C67.9742 286.765 55.3353 268.561 60.5023 229.067C65.2402 192.856 76.7587 168.971 92.1038 163.534C99.2106 161.017 117.29 162.285 133.527 172.998C146.72 181.705 162.921 199.472 165.175 234.685C165.192 234.925 165.064 235.153 164.852 235.268L68.8967 287.128C68.8047 287.178 68.7016 287.203 68.6041 287.203ZM100.272 163.648C97.059 163.648 94.3891 164.036 92.5163 164.699C85.7161 167.107 79.3924 173.709 74.2226 183.79C68.3839 195.18 64.1783 210.467 61.7258 229.228C57.0688 264.826 66.9486 282.769 68.8103 285.773L163.918 234.373C161.602 199.929 145.759 182.552 132.847 174.032C121.292 166.407 108.845 163.651 100.272 163.651V163.648Z" fill="black"/>
<path d="M106.816 258.522C106.496 258.522 106.226 258.274 106.201 257.948L103.567 220.709C103.542 220.369 103.798 220.073 104.138 220.048C104.478 220.023 104.774 220.279 104.796 220.619L107.43 257.859C107.455 258.199 107.198 258.494 106.858 258.519C106.844 258.519 106.828 258.519 106.814 258.519L106.816 258.522Z" fill="black"/>
<path d="M63.9861 276.373C63.9861 276.373 68.5929 309.722 115.202 298.56C161.809 287.398 186.108 244.072 186.108 244.072C186.108 244.072 213.245 238.272 212.323 220.664C212.323 220.664 203.24 223.1 195.514 220.664C187.789 218.228 179.431 220.72 176.215 223.735C154.178 244.404 83.7847 250.602 63.9861 276.373Z" fill="white"/>
<path d="M97.5939 301.469C88.9209 301.469 81.6329 299.477 75.811 295.5C65.109 288.189 63.4424 276.93 63.3755 276.453C63.3532 276.289 63.3978 276.124 63.4981 275.993C74.3924 261.813 100.191 253.575 125.14 245.607C146.076 238.921 165.852 232.606 175.794 223.281C179.433 219.867 188.079 217.671 195.701 220.073C203.167 222.425 212.074 220.09 212.164 220.065C212.345 220.017 212.534 220.053 212.687 220.162C212.838 220.271 212.93 220.444 212.941 220.63C213.838 237.809 189.531 243.921 186.509 244.612C185.531 246.287 179.425 256.412 168.578 267.557C157.664 278.772 139.568 293.356 115.35 299.156C108.912 300.697 102.987 301.466 97.5967 301.466L97.5939 301.469ZM64.6408 276.534C64.9501 278.223 67.1295 288.086 76.5244 294.493C85.6657 300.725 98.6307 301.89 115.057 297.958C160.872 286.985 185.325 244.2 185.567 243.768C185.654 243.614 185.804 243.503 185.977 243.467C186.239 243.411 211.81 237.742 211.726 221.441C209.36 221.974 201.927 223.331 195.327 221.252C187.725 218.855 179.587 221.416 176.635 224.184C166.491 233.698 146.586 240.056 125.514 246.783C100.871 254.654 75.3957 262.789 64.638 276.534H64.6408Z" fill="black"/>
<path d="M195.726 228.808C194.974 228.808 194.196 228.791 193.382 228.76C193.042 228.746 192.778 228.459 192.792 228.119C192.805 227.779 193.07 227.515 193.433 227.528C207.033 228.078 211.673 223.574 211.718 223.529C211.958 223.289 212.348 223.287 212.59 223.524C212.833 223.763 212.838 224.151 212.601 224.393C212.415 224.583 208.142 228.81 195.726 228.81V228.808Z" fill="black"/>
<path d="M194.313 235.26C194.012 235.26 193.708 235.26 193.396 235.251C193.056 235.246 192.783 234.964 192.791 234.621C192.797 234.281 193.087 234.011 193.421 234.017C205.277 234.234 209.103 230.031 209.14 229.989C209.365 229.733 209.753 229.705 210.012 229.931C210.268 230.154 210.296 230.544 210.07 230.803C209.909 230.99 206.038 235.262 194.316 235.262L194.313 235.26Z" fill="black"/>
<path d="M113.505 133.214C113.154 133.855 98.2465 159.336 98.2465 159.336L87.9653 166.245C91.7584 169.127 98.4583 173.463 107.828 175.949C117.387 178.483 125.503 177.967 130.252 177.309C129.84 176.011 129.146 174.319 127.942 172.552C126.044 169.765 123.781 168.107 122.334 167.22C125.403 161.95 128.471 156.683 131.54 151.413L113.505 133.214Z" fill="white"/>
<path d="M122.384 178.472C117.432 178.472 112.51 177.828 107.669 176.546C100.364 174.609 93.6088 171.309 87.5889 166.739C87.43 166.619 87.3409 166.429 87.3464 166.229C87.352 166.031 87.4551 165.844 87.6196 165.735L97.7836 158.905C98.904 156.99 112.633 133.521 112.964 132.919C113.059 132.749 113.226 132.632 113.419 132.604C113.611 132.576 113.806 132.643 113.942 132.779L131.977 150.978C132.175 151.176 132.211 151.483 132.072 151.723L123.167 167.015C125.272 168.397 127.05 170.142 128.451 172.201C129.48 173.712 130.283 175.364 130.84 177.117C130.896 177.29 130.871 177.48 130.773 177.633C130.675 177.786 130.517 177.889 130.335 177.914C127.682 178.282 125.029 178.466 122.381 178.466L122.384 178.472ZM89.0298 166.273C94.7431 170.479 101.117 173.533 107.987 175.353C115.013 177.215 122.22 177.7 129.427 176.794C128.925 175.415 128.256 174.107 127.434 172.898C126.018 170.816 124.193 169.083 122.014 167.745C121.727 167.569 121.635 167.199 121.805 166.909L130.77 151.511L113.639 134.223C111.242 138.348 99.336 158.701 98.7814 159.649C98.734 159.729 98.6699 159.796 98.5919 159.849L89.0326 166.273H89.0298Z" fill="black"/>
<path d="M158.648 116.936C151.775 111.292 143.673 117.184 135.65 110.264C131.974 107.092 131.636 104.099 127.222 102.363C124.298 101.215 119.098 100.423 115.636 103.065C111.227 106.429 114.471 111.671 110.896 123.43C108.385 131.687 104.904 135.28 106.857 138.175C108.833 141.105 113.426 138.967 115.826 142.005C118.931 145.934 113.267 152.085 115.032 157.637C116.244 161.452 122.044 166.901 136.622 168.723C137.428 166.385 139.362 161.756 140.622 157.23C144.565 143.064 142.416 137.643 145.961 135.812C151.393 133.008 157.945 141.668 161.981 139.053C166.173 136.339 165.702 122.727 158.645 116.933L158.648 116.936Z" fill="black"/>
<path d="M130.165 123.87L131.539 128.03C131.539 128.03 126.202 141.121 125.246 146.065C124.293 151.009 139.381 155.123 139.381 155.123L141.75 153.367L145.964 154.42C145.964 154.42 145.836 140.012 149.696 130.405C149.696 130.405 142.573 121.763 130.162 123.87H130.165Z" fill="white"/>
<path d="M130.692 124.187C131.238 125.444 131.723 126.595 132.125 127.838C132.172 127.983 132.164 128.134 132.111 128.265C130.962 131.102 129.859 133.964 128.8 136.837C127.766 139.711 126.715 142.612 125.999 145.527L125.876 146.071C125.829 146.26 125.846 146.369 125.82 146.519C125.846 146.804 125.885 147.093 126.032 147.378C126.294 147.949 126.765 148.484 127.3 148.958C128.384 149.905 129.7 150.661 131.043 151.332C133.747 152.656 136.642 153.69 139.543 154.529L139.014 154.629L141.38 152.874L141.419 152.848C141.564 152.748 141.742 152.726 141.898 152.77L146.065 154.005L145.533 154.426C145.519 152.369 145.594 150.332 145.719 148.289C145.848 146.249 146.04 144.209 146.296 142.177C146.569 140.145 146.912 138.122 147.35 136.113C147.815 134.109 148.381 132.122 149.12 130.179L149.217 130.801C148.105 129.555 146.714 128.418 145.257 127.487C143.794 126.545 142.216 125.776 140.563 125.238C138.916 124.697 137.205 124.315 135.466 124.232C134.599 124.132 133.73 124.19 132.86 124.204C132.381 124.198 132.111 124.276 131.765 124.262C131.433 124.262 131.082 124.218 130.689 124.187H130.692ZM129.633 123.552C130.126 123.412 130.664 123.265 131.222 123.156C131.765 123.053 132.381 122.958 132.799 122.972C133.719 122.955 134.638 122.897 135.555 123C137.395 123.092 139.215 123.493 140.959 124.067C142.712 124.639 144.382 125.45 145.926 126.447C147.481 127.451 148.897 128.588 150.17 130.015C150.318 130.179 150.351 130.405 150.282 130.597L150.268 130.636C149.529 132.49 148.947 134.415 148.462 136.369C148.002 138.331 147.634 140.318 147.333 142.316C147.049 144.32 146.829 146.333 146.67 148.353C146.514 150.371 146.408 152.403 146.391 154.418C146.391 154.657 146.193 154.852 145.954 154.849C145.92 154.849 145.887 154.844 145.856 154.838L141.597 153.966L142.116 153.863L139.747 155.619L139.739 155.624C139.582 155.739 139.387 155.766 139.215 155.719C136.219 154.852 133.306 153.816 130.491 152.439C129.092 151.736 127.713 150.959 126.481 149.883C125.873 149.34 125.288 148.715 124.904 147.888C124.7 147.484 124.605 147.004 124.583 146.525C124.605 146.296 124.616 146.015 124.664 145.831L124.795 145.251C125.545 142.199 126.598 139.315 127.64 136.414C128.705 133.524 129.811 130.656 130.965 127.799L130.951 128.226C130.436 126.693 130.004 125.068 129.633 123.552Z" fill="black"/>
<path d="M125.066 135.43C125.066 135.43 126.387 125.862 121.905 126.183C117.424 126.503 116.236 137.071 125.066 135.43Z" fill="white"/>
<path d="M123.296 136.222C120.974 136.222 119.667 135.263 118.948 134.354C117.527 132.559 117.652 130.034 118.405 128.323C119.121 126.698 120.414 125.667 121.863 125.564C122.85 125.494 123.675 125.809 124.321 126.503C126.562 128.897 125.715 135.243 125.679 135.514C125.642 135.778 125.442 135.987 125.18 136.035C124.489 136.163 123.864 136.222 123.299 136.222H123.296ZM122.12 126.79C122.064 126.79 122.008 126.79 121.95 126.796C120.949 126.868 120.068 127.604 119.533 128.819C118.929 130.191 118.814 132.194 119.915 133.585C120.832 134.742 122.412 135.19 124.508 134.892C124.714 132.947 124.826 128.844 123.418 127.342C123.07 126.969 122.644 126.785 122.12 126.785V126.79Z" fill="black"/>
<path d="M158.534 405.859C155.538 399.694 155.254 393.485 158.534 387.208L156.179 384.385L91.7832 386.503L94.0016 406.96L156.335 407.679L158.531 405.859H158.534Z" fill="white"/>
<path d="M156.338 408.295H156.329L93.9958 407.575C93.6837 407.573 93.4245 407.336 93.3883 407.024L91.1699 386.567C91.1503 386.397 91.2061 386.224 91.3176 386.096C91.429 385.965 91.5907 385.89 91.7635 385.884L156.159 383.766C156.346 383.761 156.533 383.842 156.653 383.989L159.007 386.813C159.166 387.005 159.197 387.272 159.08 387.493C156.017 393.351 156.02 399.27 159.088 405.586C159.214 405.842 159.147 406.149 158.927 406.33L156.731 408.15C156.619 408.242 156.48 408.292 156.338 408.292V408.295ZM94.5588 406.349L156.117 407.06L157.77 405.691C154.835 399.376 154.844 393.189 157.798 387.292L155.897 385.012L92.4686 387.1L94.5588 406.349Z" fill="black"/>
<path d="M40.2074 382.133H159.727C161.123 382.133 162.257 383.265 162.257 384.664C162.257 386.063 161.126 387.194 159.727 387.194H104.779C100.754 387.194 97.4936 390.455 97.4936 394.48V398.576C97.4936 402.601 100.754 405.862 104.779 405.862H159.727C161.123 405.862 162.257 406.993 162.257 408.392C162.257 409.791 161.126 410.923 159.727 410.923H40.2074C32.7885 410.923 26.7742 404.908 26.7742 397.49V395.572C26.7742 388.153 32.7885 382.139 40.2074 382.139V382.133Z" fill="white"/>
<path d="M159.73 411.535H40.2078C32.46 411.535 26.1587 405.231 26.1587 397.486V395.569C26.1587 387.821 32.4628 381.52 40.2078 381.52H159.727C161.463 381.52 162.874 382.933 162.874 384.666C162.874 386.4 161.461 387.813 159.727 387.813H104.779C101.103 387.813 98.1099 390.803 98.1099 394.482V398.579C98.1099 402.255 101.1 405.248 104.779 405.248H159.727C161.463 405.248 162.874 406.661 162.874 408.394C162.874 410.128 161.461 411.541 159.727 411.541L159.73 411.535ZM40.2106 382.751C33.1428 382.751 27.3961 388.501 27.3961 395.569V397.486C27.3961 404.554 33.1456 410.303 40.2106 410.303H159.73C160.783 410.303 161.642 409.445 161.642 408.392C161.642 407.338 160.783 406.48 159.73 406.48H104.782C100.423 406.48 96.8781 402.935 96.8781 398.576V394.479C96.8781 390.12 100.423 386.575 104.782 386.575H159.73C160.783 386.575 161.642 385.717 161.642 384.663C161.642 383.61 160.783 382.751 159.73 382.751H40.2078H40.2106Z" fill="black"/>
<path d="M156.176 396.283H119.909C119.569 396.283 119.293 396.007 119.293 395.667C119.293 395.327 119.569 395.051 119.909 395.051H156.176C156.516 395.051 156.792 395.327 156.792 395.667C156.792 396.007 156.516 396.283 156.176 396.283Z" fill="black"/>
<path d="M156.405 401.742H126.93C126.59 401.742 126.314 401.466 126.314 401.126C126.314 400.786 126.59 400.51 126.93 400.51H156.405C156.745 400.51 157.021 400.786 157.021 401.126C157.021 401.466 156.745 401.742 156.405 401.742Z" fill="black"/>
<path d="M163.166 440.662H55.2068V414.214H163.163C159.975 423.149 159.888 431.967 163.163 440.662H163.166Z" fill="white"/>
<path d="M163.166 441.278H55.2067C54.8667 441.278 54.5908 441.002 54.5908 440.662V414.214C54.5908 413.874 54.8667 413.598 55.2067 413.598H163.166C163.366 413.598 163.553 413.696 163.67 413.86C163.784 414.025 163.815 414.234 163.748 414.423C160.585 423.294 160.582 432.051 163.745 440.448C163.818 440.637 163.79 440.849 163.676 441.016C163.561 441.184 163.372 441.281 163.168 441.281L163.166 441.278ZM55.8254 440.044H162.285C159.417 431.883 159.42 423.408 162.299 414.83H55.8254V440.044Z" fill="black"/>
<path d="M68.2055 415.518H163.91C165.061 415.518 165.995 414.585 165.995 413.434C165.995 412.283 165.061 411.349 163.91 411.349H39.7171C34.6587 411.349 30.5591 415.449 30.5591 420.507V434.905C30.5591 439.963 34.6587 444.063 39.7171 444.063H163.907C165.058 444.063 165.992 443.129 165.992 441.978C165.992 440.827 165.058 439.893 163.907 439.893H68.2055C64.6326 439.893 61.7369 436.998 61.7369 433.425V421.987C61.7369 418.414 64.6326 415.518 68.2055 415.518Z" fill="white"/>
<path d="M163.907 444.679H39.717C34.327 444.679 29.9431 440.295 29.9431 434.905V420.507C29.9431 415.117 34.327 410.733 39.717 410.733H163.907C165.395 410.733 166.608 411.946 166.608 413.434C166.608 414.922 165.395 416.135 163.907 416.135H68.2054C64.9781 416.135 62.3528 418.76 62.3528 421.987V433.425C62.3528 436.652 64.9781 439.278 68.2054 439.278H163.91C165.398 439.278 166.611 440.49 166.611 441.978C166.611 443.466 165.398 444.679 163.91 444.679H163.907ZM39.717 411.965C35.007 411.965 31.175 415.797 31.175 420.507V434.905C31.175 439.615 35.007 443.447 39.717 443.447H163.907C164.715 443.447 165.373 442.789 165.373 441.981C165.373 441.173 164.715 440.515 163.907 440.515H68.2054C64.2981 440.515 61.1182 437.335 61.1182 433.428V421.99C61.1182 418.083 64.2981 414.903 68.2054 414.903H163.91C164.718 414.903 165.376 414.245 165.376 413.437C165.376 412.629 164.718 411.971 163.91 411.971H39.717V411.965Z" fill="black"/>
<path d="M161.257 421.109H145.315C144.975 421.109 144.699 420.833 144.699 420.493C144.699 420.153 144.975 419.877 145.315 419.877H161.257C161.597 419.877 161.873 420.153 161.873 420.493C161.873 420.833 161.597 421.109 161.257 421.109Z" fill="black"/>
<path d="M160.92 424.64H111.824C111.484 424.64 111.208 424.364 111.208 424.024C111.208 423.684 111.484 423.408 111.824 423.408H160.92C161.26 423.408 161.536 423.684 161.536 424.024C161.536 424.364 161.26 424.64 160.92 424.64Z" fill="black"/>
<path d="M160.92 432.009H118.678C118.338 432.009 118.062 431.733 118.062 431.393C118.062 431.053 118.338 430.777 118.678 430.777H160.92C161.26 430.777 161.536 431.053 161.536 431.393C161.536 431.733 161.26 432.009 160.92 432.009Z" fill="black"/>
<path d="M30.9854 471.057C34.3687 464.093 34.692 457.072 30.9854 449.982L33.6469 446.791L106.412 449.185L103.904 472.3L33.4685 473.111L30.9854 471.057Z" fill="white"/>
<path d="M33.4658 473.73C33.3209 473.73 33.1815 473.68 33.0728 473.588L30.5896 471.534C30.3695 471.353 30.3026 471.043 30.428 470.79C33.9089 463.627 33.9089 456.916 30.4364 450.272C30.3221 450.052 30.35 449.781 30.5088 449.592L33.1704 446.401C33.293 446.256 33.4769 446.175 33.6637 446.178L106.429 448.572C106.602 448.577 106.763 448.655 106.875 448.784C106.986 448.915 107.042 449.085 107.022 449.255L104.514 472.37C104.481 472.679 104.219 472.916 103.906 472.922L33.4714 473.733H33.463L33.4658 473.73ZM31.749 470.89L33.686 472.495L103.349 471.693L105.726 449.784L33.9257 447.424L31.7212 450.068C35.0795 456.74 35.0906 463.741 31.749 470.893V470.89Z" fill="black"/>
<path d="M164.69 444.247H29.6338C28.0564 444.247 26.7744 445.526 26.7744 447.106C26.7744 448.686 28.0536 449.965 29.6338 449.965H91.7248C96.2703 449.965 99.9575 453.653 99.9575 458.198V462.827C99.9575 467.373 96.2703 471.06 91.7248 471.06H29.6338C28.0564 471.06 26.7744 472.339 26.7744 473.919C26.7744 475.5 28.0536 476.779 29.6338 476.779H164.69C173.074 476.779 179.871 469.981 179.871 461.598V459.43C179.871 451.047 173.074 444.249 164.69 444.249V444.247Z" fill="white"/>
<path d="M164.691 477.392H29.634C27.7166 477.392 26.1587 475.834 26.1587 473.917C26.1587 471.999 27.7166 470.441 29.634 470.441H91.725C95.9249 470.441 99.339 467.024 99.339 462.827V458.198C99.339 453.998 95.9221 450.584 91.725 450.584H29.634C27.7166 450.584 26.1587 449.026 26.1587 447.109C26.1587 445.191 27.7166 443.633 29.634 443.633H164.691C173.4 443.633 180.487 450.721 180.487 459.43V461.598C180.487 470.307 173.4 477.395 164.691 477.395V477.392ZM29.634 471.676C28.3994 471.676 27.3933 472.682 27.3933 473.917C27.3933 475.151 28.3994 476.157 29.634 476.157H164.691C172.72 476.157 179.253 469.625 179.253 461.595V459.427C179.253 451.398 172.72 444.865 164.691 444.865H29.634C28.3994 444.865 27.3933 445.871 27.3933 447.106C27.3933 448.34 28.3994 449.347 29.634 449.347H91.725C96.6049 449.347 100.574 453.315 100.574 458.195V462.824C100.574 467.704 96.6049 471.673 91.725 471.673H29.634V471.676Z" fill="black"/>
<path d="M66.957 460.155H33.6472C33.3072 460.155 33.0312 459.879 33.0312 459.539C33.0312 459.199 33.3072 458.923 33.6472 458.923H66.957C67.2971 458.923 67.573 459.199 67.573 459.539C67.573 459.879 67.2971 460.155 66.957 460.155Z" fill="black"/>
<path d="M74.1057 466.328H33.3908C33.0508 466.328 32.7749 466.052 32.7749 465.712C32.7749 465.372 33.0508 465.096 33.3908 465.096H74.1057C74.4457 465.096 74.7216 465.372 74.7216 465.712C74.7216 466.052 74.4457 466.328 74.1057 466.328Z" fill="black"/>
<path d="M372.069 348.594C378.404 352.657 420.069 377.16 469.986 353.46C470.168 353.373 470.313 353.234 470.399 353.053C472.325 349.076 493.57 302.324 463.002 235.546C462.765 235.025 462.105 234.855 461.659 235.203C456.057 239.587 424.45 263.404 399.379 262.791C398.788 262.777 398.347 263.318 398.503 263.892C400.309 270.503 407.291 304.863 371.871 347.284C371.531 347.691 371.62 348.304 372.069 348.594Z" fill="white"/>
<path d="M425.877 364.295C418.818 364.295 411.706 363.546 404.557 362.041C387.069 358.362 375.012 351.213 371.735 349.112C371.375 348.881 371.13 348.504 371.066 348.081C370.999 347.654 371.122 347.22 371.398 346.888C406.644 304.674 399.666 270.48 397.907 264.054C397.782 263.594 397.877 263.12 398.169 262.746C398.465 262.37 398.916 262.161 399.393 262.172C424.169 262.788 455.285 239.408 461.277 234.715C461.637 234.434 462.097 234.336 462.543 234.445C462.997 234.556 463.368 234.863 463.563 235.286C476.397 263.323 481.756 291.118 479.499 317.901C477.774 338.374 472.077 350.999 470.954 353.32C470.806 353.627 470.564 353.866 470.251 354.017C455.834 360.862 440.98 364.295 425.88 364.295H425.877ZM399.354 263.407C399.237 263.407 399.17 263.471 399.139 263.507C399.106 263.552 399.069 263.624 399.097 263.727C400.884 270.257 407.985 304.994 372.342 347.679C372.273 347.76 372.276 347.849 372.281 347.894C372.287 347.939 372.312 348.019 372.398 348.072C375.631 350.146 387.523 357.197 404.808 360.831C426.97 365.494 448.809 362.827 469.716 352.899C469.772 352.871 469.814 352.832 469.839 352.782C470.945 350.494 476.558 338.053 478.267 317.795C480.508 291.226 475.182 263.638 462.44 235.799C462.389 235.688 462.292 235.652 462.253 235.643C462.208 235.632 462.122 235.624 462.041 235.688C456.069 240.364 425.339 263.415 400.34 263.418C400.011 263.418 399.691 263.415 399.365 263.407C399.365 263.407 399.359 263.407 399.357 263.407H399.354Z" fill="black"/>
<path d="M408.656 274.327C408.369 274.327 408.113 274.126 408.054 273.836C407.985 273.502 408.196 273.176 408.531 273.106C408.798 273.05 435.573 267.306 455.07 252.839C455.344 252.636 455.731 252.694 455.934 252.967C456.138 253.241 456.079 253.628 455.806 253.831C436.088 268.466 409.058 274.26 408.784 274.316C408.743 274.324 408.698 274.33 408.656 274.33V274.327Z" fill="black"/>
<path d="M427.917 281.288C427.635 281.288 427.382 281.093 427.315 280.809C427.24 280.477 427.449 280.146 427.78 280.071C440.528 277.175 451.732 272.454 461.079 266.038C461.361 265.846 461.745 265.916 461.937 266.197C462.13 266.479 462.057 266.863 461.779 267.055C452.303 273.56 440.954 278.343 428.053 281.275C428.006 281.286 427.961 281.291 427.917 281.291V281.288Z" fill="black"/>
<path d="M408.422 283.964C408.085 283.964 407.809 283.694 407.806 283.354C407.801 283.014 408.074 282.733 408.414 282.73C408.456 282.73 412.547 282.663 418.801 281.749C419.141 281.701 419.45 281.933 419.5 282.27C419.551 282.607 419.316 282.922 418.979 282.97C412.636 283.898 408.472 283.964 408.431 283.964H408.422Z" fill="black"/>
<path d="M414.35 294.671C410.236 294.671 407.84 294.401 407.759 294.39C407.422 294.348 407.179 294.042 407.221 293.704C407.263 293.367 407.567 293.125 407.907 293.166C408.166 293.197 434.277 296.129 463.526 282.052C463.833 281.904 464.203 282.032 464.351 282.342C464.499 282.648 464.371 283.019 464.064 283.167C443.282 293.169 424.052 294.674 414.35 294.674V294.671Z" fill="black"/>
<path d="M422.324 305.872C411.753 305.872 405.136 304.437 405.003 304.406C404.671 304.331 404.462 304.002 404.537 303.667C404.613 303.336 404.941 303.127 405.276 303.202C405.549 303.263 432.853 309.169 465.575 296.594C465.892 296.472 466.249 296.63 466.372 296.948C466.494 297.266 466.336 297.623 466.018 297.745C449.031 304.272 433.48 305.869 422.327 305.869L422.324 305.872Z" fill="black"/>
<path d="M446.564 318.754C446.261 318.754 445.999 318.531 445.954 318.222C445.907 317.884 446.141 317.572 446.478 317.525C453.058 316.6 459.326 314.975 465.109 312.703C465.427 312.578 465.783 312.734 465.909 313.052C466.034 313.37 465.878 313.726 465.56 313.852C459.688 316.159 453.326 317.809 446.651 318.748C446.623 318.751 446.592 318.754 446.564 318.754Z" fill="black"/>
<path d="M432.73 319.699C415.223 319.699 401.831 315.393 401.692 315.346C401.369 315.24 401.19 314.892 401.296 314.568C401.402 314.245 401.753 314.069 402.074 314.173C402.219 314.22 416.939 318.947 435.643 318.423C436 318.414 436.267 318.682 436.278 319.022C436.287 319.362 436.019 319.646 435.679 319.657C434.684 319.685 433.7 319.699 432.73 319.699Z" fill="black"/>
<path d="M19.0073 95.8496L43.5493 119.564C45.8123 121.749 49.4326 121.663 51.5702 119.355C58.978 111.367 76.5749 94.1496 98.6254 84.4648C101.808 83.0686 102.99 79.164 101.095 76.2488L79.2616 42.6909C77.6228 40.1715 74.2952 39.3772 71.7061 40.9017C63.4483 45.7705 44.7895 58.6853 18.7035 88.0712C16.7052 90.323 16.8418 93.7566 19.0045 95.8468L19.0073 95.8496Z" fill="white"/>
<path d="M47.4566 121.763C45.829 121.763 44.2962 121.144 43.1201 120.007L18.578 96.2927C16.1645 93.9601 16.0168 90.1698 18.2436 87.6643C44.1011 58.5376 62.6428 45.5336 71.3939 40.3722C74.2701 38.6777 77.9517 39.5472 79.7799 42.3565L101.613 75.9144C102.611 77.45 102.884 79.3368 102.36 81.0898C101.833 82.854 100.562 84.2893 98.8735 85.0306C76.5944 94.8157 58.6881 112.588 52.0217 119.776C50.8762 121.01 49.3183 121.715 47.6322 121.763C47.5737 121.763 47.5152 121.763 47.4566 121.763ZM19.4364 95.4037L43.9785 119.118C44.9567 120.063 46.2387 120.559 47.5988 120.525C48.9504 120.489 50.199 119.923 51.1159 118.934C57.8325 111.691 75.8837 93.7761 98.3774 83.8991C99.7346 83.3027 100.755 82.1517 101.175 80.7359C101.596 79.3312 101.376 77.8179 100.576 76.5861L78.7432 43.0282C77.2772 40.7763 74.3258 40.0768 72.021 41.434C63.334 46.5565 44.9121 59.4797 19.1689 88.4809C17.3824 90.4903 17.5023 93.5336 19.4392 95.4037H19.4364Z" fill="black"/>
<path d="M2.55291 126.786L27.095 150.5C29.358 152.685 32.9783 152.599 35.1159 150.291C42.5236 142.303 60.1206 125.086 82.1711 115.401C85.3538 114.005 86.5355 110.1 84.6404 107.185L62.8072 73.627C61.1685 71.1075 57.8408 70.3132 55.2517 71.8377C46.9939 76.7066 28.3352 89.6214 2.24913 119.007C0.250874 121.259 0.387435 124.693 2.55012 126.783L2.55291 126.786Z" fill="white"/>
<path d="M31.0027 152.701C29.3751 152.701 27.8423 152.082 26.6661 150.945L2.12687 127.228C-0.286645 124.895 -0.434355 121.105 1.79244 118.599C27.65 89.4699 46.1917 76.4659 54.9428 71.3072C57.8189 69.6128 61.5005 70.4823 63.3287 73.2916L85.1619 106.849C86.1596 108.385 86.4327 110.272 85.9088 112.025C85.382 113.789 84.1112 115.224 82.4223 115.966C60.1432 125.751 42.237 143.523 35.5705 150.711C34.4251 151.945 32.8672 152.651 31.181 152.698C31.1225 152.698 31.064 152.698 31.0055 152.698L31.0027 152.701ZM2.98247 126.342L27.5245 150.056C28.5028 151.001 29.7848 151.497 31.1476 151.463C32.4993 151.427 33.7478 150.861 34.6648 149.872C41.3814 142.629 59.4326 124.714 81.9262 114.837C83.2835 114.241 84.3035 113.087 84.7271 111.674C85.1479 110.269 84.9278 108.756 84.1279 107.524L62.2948 73.966C60.8288 71.7141 57.8774 71.0146 55.5698 72.3719C46.8828 77.4943 28.461 90.4175 2.71771 119.419C0.931261 121.428 1.0511 124.469 2.98805 126.342H2.98247Z" fill="black"/>
<path d="M7.7312 124.698C7.4302 124.698 7.16823 124.478 7.12085 124.174C7.07068 123.837 7.302 123.522 7.63923 123.472L37.8165 118.915C43.1452 118.11 47.5041 114.459 49.1957 109.386L59.2233 79.2954C59.332 78.9721 59.6803 78.7966 60.0036 78.9052C60.3269 79.0139 60.5025 79.3623 60.3938 79.6856L50.3663 109.777C48.5269 115.292 43.789 119.263 38.0005 120.136L7.82317 124.692C7.79251 124.698 7.76185 124.701 7.7312 124.701V124.698Z" fill="black"/>
<path d="M453.816 364.09L413.639 340.821C411.998 339.871 409.807 340.378 408.745 341.958L358.293 417.081C357.234 418.661 357.705 420.71 359.346 421.663L399.523 444.931C401.165 445.882 403.355 445.374 404.417 443.794L454.87 368.671C455.929 367.091 455.458 365.043 453.816 364.09Z" fill="white"/>
<path d="M401.321 446.021C400.596 446.021 399.866 445.84 399.214 445.464L359.037 422.195C358.095 421.649 357.443 420.779 357.206 419.748C356.966 418.714 357.17 417.644 357.78 416.736L408.233 341.613C409.47 339.773 412.031 339.177 413.949 340.286L454.126 363.555C455.068 364.101 455.72 364.97 455.957 366.001C456.196 367.035 455.993 368.106 455.382 369.014L404.93 444.137C404.116 445.349 402.723 446.021 401.321 446.021ZM411.83 340.958C410.833 340.958 409.841 341.437 409.258 342.301L358.806 417.424C358.388 418.045 358.248 418.773 358.41 419.47C358.571 420.166 359.015 420.754 359.658 421.125L399.835 444.393C401.201 445.185 403.026 444.758 403.907 443.446L454.36 368.323C454.778 367.702 454.917 366.974 454.755 366.277C454.594 365.581 454.151 364.993 453.51 364.622L413.333 341.353C412.867 341.083 412.349 340.955 411.833 340.955L411.83 340.958Z" fill="black"/>
<path d="M422.075 345.707L421 347.309C419.854 349.012 420.364 351.225 422.137 352.25L439.026 362.033C440.798 363.058 443.162 362.509 444.304 360.806L445.38 359.204L422.073 345.707H422.075Z" fill="black"/>
<path d="M431.551 355.695C430.907 355.322 430.724 354.519 431.139 353.898C431.554 353.279 432.415 353.078 433.059 353.452C433.703 353.825 433.887 354.628 433.471 355.249C433.056 355.868 432.195 356.069 431.551 355.695Z" fill="white"/>
<path d="M444.566 375.516L406.658 353.56L408.876 350.258L446.785 372.211L444.566 375.516Z" fill="black"/>
<path d="M428.184 400.524C428.078 400.524 427.973 400.496 427.875 400.44L389.967 378.487C389.819 378.401 389.713 378.258 389.674 378.091C389.635 377.924 389.668 377.748 389.763 377.609L404.523 355.631C404.704 355.361 405.064 355.277 405.345 355.442L443.253 377.395C443.401 377.481 443.507 377.623 443.546 377.79C443.585 377.958 443.552 378.133 443.457 378.272L428.697 400.25C428.58 400.426 428.385 400.524 428.184 400.524ZM391.157 377.748L427.995 399.083L442.066 378.13L405.228 356.796L391.157 377.748Z" fill="black"/>
<path d="M444.095 372.949C443.8 373.389 443.192 373.529 442.735 373.264C442.278 372.999 442.147 372.428 442.443 371.99C442.738 371.55 443.346 371.411 443.803 371.675C444.26 371.94 444.391 372.512 444.095 372.949Z" fill="white"/>
<path d="M417.965 415.737C417.859 415.737 417.753 415.71 417.655 415.654L379.747 393.701C379.599 393.615 379.493 393.472 379.454 393.305C379.415 393.138 379.449 392.962 379.544 392.823L388.746 379.122C388.927 378.852 389.287 378.768 389.568 378.933L427.477 400.886C427.624 400.972 427.73 401.114 427.769 401.281C427.808 401.449 427.775 401.624 427.68 401.764L418.478 415.464C418.361 415.64 418.165 415.737 417.965 415.737ZM380.937 392.962L417.775 414.297L426.287 401.621L389.449 380.287L380.937 392.962Z" fill="black"/>
<path d="M407.419 431.443C407.313 431.443 407.207 431.415 407.11 431.359L369.201 409.406C369.053 409.32 368.948 409.177 368.909 409.01C368.87 408.843 368.903 408.667 368.998 408.528L378.2 394.827C378.381 394.557 378.741 394.473 379.022 394.638L416.931 416.591C417.079 416.677 417.184 416.819 417.224 416.987C417.263 417.154 417.229 417.329 417.134 417.469L407.932 431.169C407.815 431.345 407.62 431.443 407.419 431.443ZM370.391 408.667L407.229 430.002L415.741 417.327L378.903 395.992L370.391 408.667Z" fill="black"/>
<path d="M399.988 442.507C399.883 442.507 399.777 442.479 399.679 442.423L361.771 420.47C361.623 420.384 361.517 420.242 361.478 420.074C361.439 419.907 361.473 419.732 361.567 419.592L367.654 410.529C367.835 410.259 368.195 410.175 368.476 410.34L406.385 432.292C406.532 432.379 406.638 432.521 406.677 432.688C406.716 432.855 406.683 433.031 406.588 433.17L400.501 442.234C400.384 442.409 400.189 442.507 399.988 442.507ZM362.961 419.732L399.799 441.066L405.197 433.028L368.359 411.694L362.961 419.732Z" fill="black"/>
<path d="M384.474 166.218C384.398 166.218 384.32 166.204 384.245 166.173C381.887 165.229 379.309 163.682 379.201 163.618C378.908 163.442 378.813 163.063 378.992 162.77C379.167 162.478 379.546 162.383 379.839 162.561C379.864 162.578 382.439 164.122 384.705 165.028C385.023 165.153 385.176 165.513 385.048 165.83C384.95 166.073 384.719 166.218 384.474 166.218Z" fill="black"/>
<path d="M408.051 202.145L417.438 207.513C418.215 207.959 419.207 207.683 419.65 206.899L448.649 155.806C449.145 154.934 448.844 153.824 447.977 153.328L424.19 139.725L408.054 202.145H408.051Z" fill="white"/>
<path d="M408.052 202.145L417.438 207.512C417.895 207.774 418.425 207.786 418.874 207.596C418.874 207.596 419.626 207.253 420.459 205.79C421.176 204.53 448.438 156.176 448.438 156.176C449.037 155.117 448.736 154.011 447.869 153.515L424.083 139.912L408.049 202.145H408.052Z" fill="white"/>
<path d="M418.232 208.342C417.85 208.342 417.474 208.242 417.131 208.047L407.745 202.679C407.449 202.509 407.346 202.133 407.516 201.838C407.686 201.542 408.063 201.439 408.358 201.609L417.745 206.977C418.018 207.133 418.338 207.152 418.631 207.027C418.631 207.027 419.233 206.695 419.924 205.483C420.632 204.24 447.629 156.357 447.902 155.872C448.315 155.147 448.175 154.398 447.565 154.049L423.778 140.446C423.483 140.276 423.38 139.9 423.55 139.604C423.72 139.309 424.096 139.206 424.391 139.376L448.178 152.979C449.377 153.665 449.719 155.17 448.975 156.482C448.702 156.964 421.705 204.85 420.997 206.096C420.088 207.687 419.224 208.114 419.13 208.158C418.837 208.284 418.533 208.345 418.235 208.345L418.232 208.342Z" fill="black"/>
<path d="M434.191 172.162L406.368 204.402C405.978 204.856 405.323 204.97 404.805 204.672L349.954 173.305C349.272 172.915 349.115 171.992 349.631 171.393L391.82 122.509C392.21 122.055 392.865 121.941 393.384 122.239L448.234 153.606C448.917 153.997 449.073 154.919 448.557 155.518L437 168.929L434.193 172.162H434.191Z" fill="white"/>
<path d="M405.418 205.453C405.103 205.453 404.785 205.372 404.498 205.207L349.648 173.84C349.163 173.561 348.831 173.087 348.733 172.533C348.639 171.978 348.795 171.415 349.16 170.989L391.349 122.105C391.931 121.428 392.912 121.261 393.684 121.701L448.535 153.069C449.02 153.347 449.351 153.821 449.449 154.376C449.544 154.93 449.388 155.493 449.023 155.92L437.465 169.331C437.242 169.59 436.852 169.618 436.595 169.395C436.336 169.172 436.308 168.782 436.531 168.525L448.089 155.114C448.214 154.969 448.267 154.774 448.234 154.585C448.214 154.473 448.15 154.27 447.924 154.142L393.074 122.774C392.815 122.627 392.483 122.682 392.285 122.914L350.096 171.797C349.971 171.942 349.918 172.134 349.951 172.327C349.971 172.438 350.035 172.641 350.261 172.77L405.111 204.137C405.37 204.285 405.702 204.226 405.9 203.998L433.725 171.758C433.948 171.499 434.338 171.471 434.594 171.694C434.854 171.917 434.881 172.307 434.659 172.563L406.836 204.803C406.471 205.227 405.95 205.453 405.42 205.453H405.418Z" fill="black"/>
<path d="M396.093 200.746C396.032 200.757 395.977 200.768 395.922 200.779L396.093 200.746Z" fill="black"/>
<path d="M382.896 139.959L393.35 145.94L385.803 154.683L375.349 148.705L382.896 139.959Z" fill="white"/>
<path d="M385.803 155.301C385.697 155.301 385.594 155.273 385.497 155.22L375.043 149.242C374.884 149.15 374.772 148.992 374.742 148.81C374.711 148.629 374.761 148.443 374.884 148.303L382.431 139.558C382.623 139.335 382.949 139.279 383.206 139.424L393.66 145.402C393.819 145.494 393.93 145.653 393.961 145.834C393.991 146.015 393.941 146.202 393.818 146.341L386.271 155.087C386.152 155.226 385.979 155.301 385.803 155.301ZM376.305 148.543L385.669 153.897L392.394 146.104L383.03 140.751L376.305 148.543Z" fill="black"/>
<path d="M373.688 150.594L384.142 156.575L376.595 165.317L366.138 159.339L373.688 150.594Z" fill="white"/>
<path d="M376.595 165.936C376.489 165.936 376.386 165.908 376.288 165.855L365.834 159.877C365.676 159.785 365.564 159.626 365.533 159.445C365.503 159.264 365.553 159.077 365.676 158.938L373.223 150.192C373.415 149.969 373.738 149.914 373.997 150.059L384.451 156.037C384.61 156.129 384.722 156.288 384.752 156.469C384.783 156.65 384.733 156.837 384.61 156.976L377.063 165.721C376.943 165.861 376.771 165.936 376.595 165.936ZM367.097 159.175L376.461 164.529L383.186 156.736L373.822 151.382L367.097 159.175Z" fill="black"/>
<path d="M395.471 147.152L405.928 153.13L398.378 161.875L387.924 155.897L395.471 147.152Z" fill="white"/>
<path d="M398.378 162.492C398.272 162.492 398.169 162.464 398.072 162.411L387.618 156.433C387.459 156.341 387.347 156.182 387.317 156.001C387.286 155.82 387.336 155.633 387.459 155.494L395.006 146.748C395.198 146.525 395.521 146.469 395.781 146.614L406.235 152.592C406.393 152.684 406.505 152.843 406.536 153.024C406.566 153.206 406.516 153.392 406.393 153.532L398.846 162.277C398.726 162.416 398.554 162.492 398.378 162.492ZM388.88 155.733L398.244 161.087L404.969 153.295L395.605 147.941L388.88 155.733Z" fill="black"/>
<path d="M386.263 157.787L396.717 163.765L389.17 172.511L378.716 166.533L386.263 157.787Z" fill="white"/>
<path d="M389.17 173.126C389.064 173.126 388.961 173.099 388.863 173.046L378.409 167.068C378.251 166.976 378.139 166.817 378.108 166.636C378.078 166.454 378.128 166.268 378.251 166.128L385.798 157.383C385.99 157.16 386.316 157.104 386.572 157.249L397.026 163.227C397.185 163.319 397.297 163.478 397.327 163.659C397.358 163.84 397.308 164.027 397.185 164.166L389.638 172.912C389.518 173.051 389.345 173.126 389.17 173.126ZM379.672 166.365L389.036 171.719L395.761 163.927L386.397 158.573L379.672 166.365Z" fill="black"/>
<path d="M408.049 154.342L418.503 160.32L410.953 169.066L400.499 163.088L408.049 154.342Z" fill="white"/>
<path d="M410.953 169.685C410.847 169.685 410.744 169.657 410.646 169.604L400.192 163.626C400.033 163.534 399.922 163.375 399.891 163.194C399.861 163.013 399.911 162.826 400.033 162.686L407.583 153.941C407.776 153.718 408.102 153.662 408.358 153.807L418.812 159.785C418.971 159.877 419.082 160.036 419.113 160.217C419.144 160.398 419.094 160.585 418.971 160.724L411.424 169.47C411.304 169.609 411.131 169.685 410.956 169.685H410.953ZM401.455 162.923L410.819 168.277L417.544 160.485L408.183 155.131L401.455 162.923Z" fill="black"/>
<path d="M398.838 164.977L409.292 170.955L401.745 179.701L391.291 173.723L398.838 164.977Z" fill="white"/>
<path d="M401.745 180.319C401.639 180.319 401.536 180.291 401.438 180.239L390.984 174.26C390.825 174.169 390.714 174.01 390.683 173.828C390.653 173.647 390.703 173.461 390.825 173.321L398.373 164.576C398.565 164.353 398.891 164.297 399.147 164.442L409.601 170.42C409.76 170.512 409.872 170.671 409.902 170.852C409.933 171.033 409.883 171.22 409.76 171.359L402.213 180.105C402.093 180.244 401.92 180.319 401.745 180.319ZM392.247 173.561L401.611 178.915L408.336 171.122L398.972 165.769L392.247 173.561Z" fill="black"/>
<path d="M420.624 161.533L431.078 167.514L423.531 176.259L413.074 170.278L420.624 161.533Z" fill="white"/>
<path d="M423.528 176.875C423.422 176.875 423.319 176.847 423.221 176.794L412.767 170.816C412.608 170.724 412.497 170.565 412.466 170.384C412.435 170.203 412.486 170.016 412.608 169.877L420.155 161.131C420.348 160.908 420.671 160.853 420.93 160.998L431.384 166.976C431.543 167.068 431.654 167.227 431.685 167.408C431.716 167.589 431.666 167.776 431.543 167.915L423.996 176.66C423.876 176.8 423.703 176.875 423.528 176.875ZM414.03 170.117L423.391 175.47L430.116 167.678L420.752 162.324L414.027 170.117H414.03Z" fill="black"/>
<path d="M411.413 172.171L421.867 178.149L414.319 186.894L403.865 180.914L411.413 172.171Z" fill="white"/>
<path d="M414.319 187.51C414.213 187.51 414.11 187.482 414.013 187.429L403.559 181.451C403.4 181.359 403.288 181.201 403.258 181.019C403.227 180.838 403.277 180.652 403.4 180.512L410.947 171.767C411.139 171.544 411.463 171.488 411.722 171.633L422.176 177.611C422.335 177.703 422.446 177.862 422.477 178.043C422.507 178.224 422.457 178.411 422.335 178.55L414.788 187.296C414.668 187.435 414.495 187.51 414.319 187.51ZM404.821 180.752L414.186 186.106L420.91 178.313L411.546 172.959L404.821 180.752Z" fill="black"/>
<path d="M397.882 131.339C397.779 131.339 397.673 131.314 397.575 131.258C394.716 129.622 393.718 125.952 395.351 123.075C396.146 121.676 397.433 120.673 398.98 120.249C400.515 119.829 402.124 120.032 403.506 120.821C403.612 120.882 403.718 120.946 403.818 121.013C404.102 121.2 404.183 121.582 403.996 121.869C403.81 122.153 403.428 122.234 403.141 122.047C403.06 121.994 402.979 121.944 402.893 121.897C401.798 121.269 400.527 121.111 399.309 121.442C398.082 121.779 397.06 122.577 396.43 123.686C395.131 125.974 395.923 128.889 398.194 130.188C398.489 130.358 398.592 130.734 398.422 131.029C398.308 131.23 398.099 131.342 397.887 131.342L397.882 131.339Z" fill="black"/>
<path d="M404.925 135.366C404.821 135.366 404.716 135.341 404.618 135.285C401.759 133.649 400.761 129.979 402.394 127.103C403.188 125.704 404.476 124.7 406.023 124.277C407.558 123.856 409.166 124.059 410.549 124.848C410.655 124.909 410.758 124.974 410.861 125.038C411.145 125.224 411.226 125.606 411.039 125.893C410.852 126.177 410.471 126.258 410.184 126.072C410.103 126.019 410.019 125.968 409.936 125.921C408.84 125.294 407.567 125.132 406.349 125.467C405.122 125.804 404.1 126.601 403.47 127.71C402.171 129.996 402.963 132.914 405.234 134.212C405.529 134.382 405.632 134.759 405.462 135.054C405.348 135.255 405.139 135.366 404.927 135.366H404.925Z" fill="black"/>
<path d="M411.967 139.393C411.864 139.393 411.758 139.368 411.66 139.312C408.801 137.676 407.803 134.006 409.436 131.13C410.231 129.731 411.518 128.727 413.062 128.304C414.598 127.883 416.206 128.086 417.588 128.875C417.694 128.936 417.797 129 417.9 129.064C418.185 129.251 418.266 129.633 418.079 129.92C417.892 130.204 417.51 130.285 417.223 130.098C417.142 130.045 417.059 129.995 416.975 129.945C415.88 129.318 414.606 129.159 413.391 129.491C412.165 129.828 411.142 130.625 410.512 131.734C409.213 134.022 410.005 136.938 412.276 138.236C412.572 138.406 412.675 138.783 412.505 139.078C412.391 139.279 412.182 139.39 411.97 139.39L411.967 139.393Z" fill="black"/>
<path d="M419.007 143.42C418.904 143.42 418.798 143.395 418.7 143.34C415.841 141.704 414.843 138.033 416.476 135.157C417.271 133.758 418.558 132.755 420.102 132.331C421.638 131.91 423.246 132.114 424.628 132.902C424.734 132.964 424.837 133.028 424.941 133.095C425.225 133.281 425.306 133.663 425.119 133.95C424.932 134.234 424.55 134.315 424.263 134.129C424.182 134.076 424.102 134.025 424.015 133.978C422.92 133.351 421.646 133.189 420.428 133.524C419.202 133.861 418.179 134.658 417.549 135.767C416.251 138.055 417.042 140.971 419.314 142.269C419.609 142.439 419.712 142.816 419.542 143.111C419.428 143.312 419.219 143.423 419.007 143.423V143.42Z" fill="black"/>
<path d="M426.05 147.448C425.947 147.448 425.841 147.423 425.743 147.367C422.884 145.731 421.886 142.06 423.519 139.184C424.313 137.785 425.601 136.782 427.145 136.358C428.681 135.937 430.289 136.141 431.671 136.93C431.777 136.991 431.88 137.055 431.983 137.119C432.268 137.306 432.348 137.688 432.162 137.975C431.975 138.259 431.593 138.34 431.306 138.153C431.225 138.1 431.142 138.05 431.058 138C429.963 137.373 428.689 137.211 427.471 137.546C426.245 137.883 425.222 138.68 424.592 139.789C423.293 142.077 424.085 144.992 426.356 146.291C426.652 146.461 426.755 146.837 426.585 147.133C426.471 147.331 426.262 147.445 426.05 147.445V147.448Z" fill="black"/>
<path d="M433.09 151.475C432.987 151.475 432.881 151.449 432.783 151.394C429.924 149.758 428.926 146.087 430.559 143.211C431.354 141.812 432.641 140.809 434.185 140.385C435.721 139.964 437.329 140.168 438.711 140.957C438.817 141.018 438.92 141.082 439.023 141.146C439.308 141.333 439.388 141.715 439.202 142.002C439.015 142.286 438.633 142.367 438.346 142.18C438.265 142.127 438.182 142.077 438.098 142.027C437.003 141.4 435.729 141.241 434.511 141.572C433.285 141.91 432.262 142.707 431.632 143.816C430.334 146.104 431.125 149.019 433.396 150.318C433.692 150.488 433.795 150.864 433.625 151.16C433.511 151.36 433.302 151.472 433.09 151.472V151.475Z" fill="black"/>
<path d="M439.731 155.271C439.628 155.271 439.522 155.246 439.424 155.19C436.565 153.554 435.567 149.884 437.2 147.008C437.994 145.608 439.282 144.605 440.829 144.182C442.364 143.761 443.972 143.964 445.355 144.753C447.164 145.787 448.289 147.657 448.362 149.753C448.373 150.093 448.108 150.38 447.766 150.391C447.409 150.408 447.138 150.137 447.127 149.795C447.069 148.128 446.177 146.645 444.739 145.823C443.644 145.196 442.37 145.037 441.155 145.369C439.929 145.706 438.906 146.503 438.276 147.612C436.977 149.9 437.769 152.816 440.04 154.114C440.335 154.284 440.439 154.661 440.269 154.956C440.154 155.157 439.945 155.268 439.733 155.268L439.731 155.271Z" fill="black"/>
<path d="M162.951 461.646C162.951 461.646 141.606 414.861 153.852 354.211C153.852 354.211 186.933 381.93 175.008 461.646H162.954H162.951Z" fill="white"/>
<path d="M175.005 462.261H162.951C162.709 462.261 162.492 462.119 162.391 461.899C162.177 461.428 141.104 414.236 153.247 354.085C153.289 353.871 153.442 353.698 153.649 353.625C153.855 353.553 154.083 353.595 154.248 353.734C154.591 354.021 162.715 360.958 169.473 377.802C175.688 393.287 181.797 420.418 175.615 461.735C175.571 462.036 175.312 462.261 175.005 462.261ZM163.356 461.027H174.473C180.473 420.343 174.473 393.627 168.367 378.36C162.929 364.77 156.452 357.605 154.239 355.42C143.186 411.895 161.444 456.579 163.356 461.027Z" fill="black"/>
<path d="M168.171 457.384C168.171 457.384 168.149 457.384 168.138 457.384C167.798 457.365 167.536 457.075 167.556 456.735C169.189 426.822 155.703 362.976 155.566 362.335C155.496 362 155.708 361.674 156.043 361.602C156.374 361.532 156.703 361.744 156.776 362.078C156.912 362.722 170.434 426.725 168.79 456.802C168.773 457.131 168.5 457.384 168.174 457.384H168.171Z" fill="black"/>
<path d="M187.677 385.804C187.677 385.804 160.178 435.49 176.719 456.989H185.568C185.568 456.989 203.251 418.15 187.677 385.804Z" fill="white"/>
<path d="M185.567 457.607H176.719C176.526 457.607 176.345 457.518 176.228 457.368C169.236 448.282 168.96 433.405 175.403 413.15C180.175 398.156 187.064 385.634 187.134 385.509C187.245 385.308 187.457 385.182 187.691 385.191C187.922 385.196 188.129 385.333 188.229 385.539C203.75 417.773 186.303 456.858 186.125 457.248C186.024 457.468 185.804 457.61 185.562 457.61L185.567 457.607ZM177.025 456.373H185.163C186.855 452.418 201.236 417.021 187.641 387.184C183.806 394.508 162.617 437.059 177.025 456.373Z" fill="black"/>
<path d="M180.849 458.923C180.52 458.923 180.244 458.661 180.233 458.329C179.436 437.817 186.334 393.192 186.403 392.744C186.456 392.406 186.771 392.178 187.109 392.228C187.446 392.281 187.677 392.596 187.624 392.933C187.554 393.379 180.676 437.89 181.468 458.282C181.482 458.622 181.217 458.909 180.874 458.923C180.866 458.923 180.857 458.923 180.849 458.923Z" fill="black"/>
<path d="M131.921 404.105C131.921 404.105 155.348 412.098 163.829 459.418H154.615C154.615 459.418 135.385 433.429 131.921 404.105Z" fill="white"/>
<path d="M163.829 460.034H154.616C154.421 460.034 154.237 459.942 154.12 459.783C153.927 459.521 134.753 433.327 131.308 404.178C131.283 403.966 131.37 403.76 131.534 403.626C131.698 403.492 131.921 403.453 132.122 403.523C132.367 403.606 138.214 405.666 145.162 413.612C151.525 420.891 160.034 434.726 164.44 459.31C164.473 459.491 164.423 459.675 164.306 459.814C164.189 459.953 164.016 460.034 163.832 460.034H163.829ZM154.931 458.799H163.091C155.661 418.447 137.077 407.229 132.668 405.103C136.208 431.981 152.994 456.093 154.931 458.799Z" fill="black"/>
<path d="M158.793 458.7C158.495 458.7 158.236 458.485 158.186 458.184C154.699 437.109 139.611 415.889 139.457 415.677C139.259 415.401 139.321 415.014 139.599 414.816C139.878 414.618 140.263 414.679 140.461 414.958C140.614 415.173 155.87 436.63 159.404 457.983C159.459 458.321 159.231 458.638 158.896 458.694C158.863 458.7 158.83 458.702 158.796 458.702L158.793 458.7Z" fill="black"/>
<path d="M140.959 455.661H198.756L200.052 482.999C200.369 489.702 195.021 495.309 188.31 495.309H155.301C147.361 495.309 140.929 488.868 140.934 480.928L140.957 455.659L140.959 455.661Z" fill="black"/>
<path d="M271.337 24.3384H256.195V194.706H271.337V24.3384Z" fill="white"/>
<path d="M256.195 195.322C255.855 195.322 255.579 195.046 255.579 194.706V24.3386C255.579 23.9986 255.855 23.7227 256.195 23.7227C256.535 23.7227 256.811 23.9986 256.811 24.3386V194.706C256.811 195.046 256.535 195.322 256.195 195.322Z" fill="black"/>
<path d="M271.337 195.322C270.997 195.322 270.721 195.046 270.721 194.706V24.3386C270.721 23.9986 270.997 23.7227 271.337 23.7227C271.677 23.7227 271.953 23.9986 271.953 24.3386V194.706C271.953 195.046 271.677 195.322 271.337 195.322Z" fill="black"/>
<path d="M318.345 71.9486L378.789 89.5289L421.688 41.8159L318.345 71.9486Z" fill="white"/>
<path d="M378.789 90.1447C378.73 90.1447 378.674 90.1363 378.616 90.1196L318.172 72.5394C317.907 72.4641 317.726 72.2216 317.726 71.9457C317.726 71.6698 317.907 71.4301 318.172 71.3521L421.516 41.2194C421.78 41.1413 422.065 41.25 422.21 41.4842C422.357 41.7183 422.329 42.0192 422.145 42.2255L379.246 89.9356C379.126 90.0666 378.959 90.1391 378.786 90.1391L378.789 90.1447ZM320.552 71.9485L378.588 88.8264L419.779 43.0142L320.552 71.9457V71.9485Z" fill="black"/>
<path d="M348.461 100.314L340.024 78.2551L406.82 50.0928L350.648 81.3431L363.284 85.0191L348.461 100.314Z" fill="white"/>
<path d="M348.461 100.93C348.419 100.93 348.377 100.927 348.338 100.916C348.132 100.874 347.962 100.729 347.887 100.531L339.45 78.4723C339.331 78.1602 339.481 77.8118 339.788 77.6836L406.583 49.5213C406.887 49.3931 407.235 49.5241 407.377 49.8195C407.522 50.1149 407.408 50.4688 407.124 50.6305L352.245 81.1617L363.46 84.4225C363.669 84.4838 363.828 84.6482 363.884 84.8573C363.939 85.0663 363.881 85.2892 363.73 85.4453L348.907 100.74C348.79 100.86 348.628 100.927 348.463 100.927L348.461 100.93ZM340.816 78.5894L348.692 99.1879L362.128 85.3255L350.478 81.9365C350.239 81.8668 350.066 81.6606 350.038 81.4126C350.01 81.1645 350.133 80.9249 350.35 80.805L396.608 55.0701L340.816 78.5922V78.5894Z" fill="black"/>
<path d="M349.23 94.2685C349.205 94.2685 349.182 94.2684 349.157 94.2657C348.82 94.2266 348.575 93.9201 348.614 93.5829L350.035 81.2756C350.074 80.9356 350.381 80.6959 350.718 80.7321C351.055 80.7712 351.3 81.0777 351.261 81.4149L349.84 93.7222C349.804 94.0371 349.536 94.2685 349.227 94.2685H349.23Z" fill="black"/>
<path d="M224.752 498.026C220.614 498.026 216.428 497.912 212.311 497.689C211.971 497.669 211.709 497.379 211.729 497.039C211.748 496.699 212.041 496.44 212.378 496.457C216.472 496.68 220.636 496.794 224.752 496.794C246.036 496.794 267.092 493.806 287.331 487.915C287.657 487.82 288 488.007 288.095 488.336C288.189 488.662 288.003 489.004 287.674 489.102C267.32 495.027 246.151 498.029 224.75 498.029L224.752 498.026Z" fill="black"/>
<path d="M353.176 457.609C352.981 457.609 352.788 457.517 352.669 457.347C352.474 457.069 352.54 456.684 352.819 456.489C358.884 452.242 364.806 447.637 370.424 442.808C370.684 442.585 371.074 442.615 371.294 442.872C371.514 443.128 371.486 443.521 371.227 443.741C365.581 448.599 359.625 453.228 353.527 457.498C353.418 457.573 353.296 457.609 353.173 457.609H353.176Z" fill="black"/>
<path d="M153.283 61.3912C153.024 61.3912 152.784 61.2296 152.698 60.9704C152.589 60.6471 152.762 60.2959 153.085 60.1873C176.114 52.4451 200.227 48.521 224.749 48.521C228.782 48.521 232.862 48.6297 236.875 48.8415C237.215 48.8582 237.477 49.1509 237.458 49.4909C237.441 49.8309 237.149 50.0928 236.809 50.0733C232.818 49.8615 228.76 49.7528 224.747 49.7528C200.355 49.7528 176.376 53.6574 153.475 61.355C153.411 61.3773 153.344 61.3884 153.277 61.3884L153.283 61.3912Z" fill="black"/>
<path d="M134.714 68.5734C134.477 68.5734 134.251 68.4368 134.148 68.2055C134.012 67.8933 134.154 67.5282 134.466 67.3917C137.063 66.2518 139.719 65.1454 142.356 64.1058C142.673 63.9804 143.03 64.1365 143.156 64.4542C143.281 64.7719 143.125 65.1287 142.807 65.2541C140.185 66.288 137.545 67.3861 134.962 68.5232C134.881 68.5594 134.797 68.5761 134.714 68.5761V68.5734Z" fill="black"/>
<path d="M7.73124 217.657C7.68107 217.657 7.62812 217.651 7.57795 217.637C7.24909 217.551 7.04843 217.216 7.13483 216.885C11.6218 199.522 18.213 182.697 26.73 166.878C26.8917 166.577 27.2651 166.466 27.5661 166.627C27.8671 166.789 27.9786 167.162 27.8169 167.463C19.3473 183.196 12.7896 199.926 8.33044 217.194C8.25798 217.473 8.00715 217.657 7.73403 217.657H7.73124Z" fill="black"/>
<path d="M24.1714 374.017C23.9457 374.017 23.7255 373.891 23.6196 373.677C7.94565 342.34 0 308.562 0 273.273C0 257.17 1.7112 241.098 5.08622 225.502C5.15868 225.167 5.48754 224.958 5.81919 225.028C6.15363 225.1 6.36544 225.429 6.29298 225.761C2.93468 241.27 1.23463 257.257 1.23463 273.27C1.23463 308.367 9.13569 341.961 24.7232 373.122C24.8765 373.426 24.7511 373.797 24.4473 373.95C24.3581 373.994 24.2634 374.014 24.1714 374.014V374.017Z" fill="black"/>
<path d="M46.0159 176.003C45.9072 176.003 45.7985 175.975 45.6982 175.913C45.4056 175.738 45.3108 175.359 45.4864 175.066C53.1701 162.296 62.2946 150.343 72.6092 139.538C72.8433 139.29 73.2362 139.282 73.4815 139.518C73.7268 139.755 73.7379 140.146 73.501 140.391C63.2477 151.129 54.1789 163.01 46.5426 175.702C46.4256 175.894 46.2221 176 46.0131 176L46.0159 176.003Z" fill="black"/>
<path d="M35.1409 362.821C34.9068 362.821 34.681 362.688 34.5779 362.459C22.6971 336.217 16.6716 308.189 16.6716 279.151C16.6716 246.535 24.1992 215.399 39.0454 186.61C39.2015 186.306 39.5722 186.189 39.8759 186.345C40.1797 186.501 40.2968 186.874 40.1407 187.175C25.3865 215.789 17.9063 246.736 17.9063 279.154C17.9063 308.016 23.8927 335.871 35.7011 361.952C35.8404 362.261 35.7011 362.629 35.3945 362.769C35.3109 362.805 35.2245 362.824 35.1409 362.824V362.821Z" fill="black"/>
<path d="M340.799 459.298C340.646 459.298 340.493 459.243 340.373 459.126C340.128 458.889 340.119 458.499 340.353 458.253L342.625 455.882C342.862 455.636 343.252 455.628 343.497 455.862C343.742 456.099 343.751 456.489 343.517 456.734L341.245 459.106C341.126 459.231 340.961 459.296 340.799 459.296V459.298Z" fill="black"/>
<path d="M332.851 467.598C332.697 467.598 332.544 467.542 332.424 467.425C332.179 467.189 332.171 466.798 332.405 466.553L334.676 464.181C334.913 463.936 335.303 463.928 335.548 464.162C335.794 464.399 335.802 464.789 335.568 465.034L333.297 467.406C333.177 467.531 333.012 467.595 332.851 467.595V467.598Z" fill="black"/>
<path d="M335.077 459.427C334.921 459.427 334.765 459.368 334.645 459.248L332.341 456.98C332.098 456.74 332.095 456.35 332.335 456.107C332.575 455.865 332.965 455.862 333.207 456.102L335.512 458.37C335.755 458.61 335.757 459 335.518 459.243C335.398 459.365 335.236 459.427 335.077 459.427Z" fill="black"/>
<path d="M343.148 467.367C342.992 467.367 342.836 467.308 342.716 467.188L340.412 464.92C340.169 464.68 340.166 464.29 340.406 464.047C340.646 463.805 341.036 463.802 341.278 464.042L343.583 466.31C343.826 466.55 343.828 466.94 343.589 467.183C343.469 467.305 343.307 467.367 343.148 467.367Z" fill="black"/>
<path d="M436.531 231.054C436.378 231.054 436.225 230.998 436.105 230.881C435.859 230.644 435.851 230.254 436.085 230.009L438.357 227.637C438.593 227.392 438.984 227.383 439.229 227.617C439.474 227.854 439.482 228.244 439.248 228.49L436.977 230.861C436.857 230.987 436.693 231.051 436.531 231.051V231.054Z" fill="black"/>
<path d="M428.583 239.351C428.43 239.351 428.277 239.295 428.157 239.178C427.911 238.941 427.903 238.551 428.137 238.306L430.409 235.934C430.645 235.689 431.036 235.68 431.281 235.914C431.526 236.151 431.535 236.541 431.3 236.787L429.029 239.158C428.909 239.284 428.745 239.348 428.583 239.348V239.351Z" fill="black"/>
<path d="M430.81 231.179C430.654 231.179 430.498 231.121 430.378 231.001L428.073 228.732C427.831 228.493 427.828 228.102 428.067 227.86C428.307 227.617 428.697 227.615 428.94 227.854L431.245 230.123C431.487 230.363 431.49 230.753 431.25 230.995C431.13 231.118 430.969 231.179 430.81 231.179Z" fill="black"/>
<path d="M438.881 239.122C438.725 239.122 438.569 239.063 438.449 238.944L436.144 236.675C435.902 236.435 435.899 236.045 436.138 235.803C436.378 235.56 436.768 235.557 437.011 235.797L439.316 238.066C439.558 238.305 439.561 238.696 439.321 238.938C439.201 239.061 439.04 239.122 438.881 239.122Z" fill="black"/>
<path d="M187.558 204.572C187.388 204.572 187.218 204.502 187.095 204.363C185.431 202.49 184.25 200.213 183.581 197.596C183.497 197.264 183.695 196.93 184.027 196.846C184.358 196.763 184.693 196.961 184.776 197.292C185.395 199.717 186.487 201.821 188.017 203.546C188.243 203.8 188.221 204.19 187.965 204.418C187.847 204.522 187.7 204.575 187.555 204.575L187.558 204.572ZM183.595 190.709C183.595 190.709 183.567 190.709 183.556 190.709C183.216 190.687 182.956 190.394 182.979 190.054C183.126 187.738 183.542 185.247 184.216 182.641C184.302 182.312 184.637 182.112 184.969 182.198C185.297 182.284 185.498 182.622 185.412 182.95C184.757 185.478 184.353 187.895 184.21 190.132C184.191 190.459 183.918 190.709 183.595 190.709ZM187.148 176.384C187.073 176.384 186.995 176.37 186.917 176.34C186.602 176.212 186.448 175.852 186.574 175.537C187.48 173.282 188.539 171.003 189.72 168.762C189.879 168.461 190.253 168.344 190.554 168.503C190.855 168.662 190.972 169.035 190.813 169.336C189.651 171.541 188.608 173.781 187.719 175.997C187.622 176.237 187.39 176.384 187.145 176.384H187.148ZM194.048 163.294C193.931 163.294 193.812 163.26 193.706 163.191C193.421 163.001 193.346 162.619 193.536 162.335C194.673 160.63 195.81 159.105 196.911 157.798C197.309 157.324 197.711 156.862 198.12 156.41C198.349 156.157 198.739 156.137 198.993 156.366C199.246 156.594 199.266 156.984 199.037 157.238C198.639 157.681 198.243 158.135 197.853 158.595C196.782 159.866 195.673 161.357 194.561 163.024C194.441 163.202 194.246 163.297 194.048 163.297V163.294ZM203.886 152.288C203.711 152.288 203.538 152.213 203.415 152.071C203.195 151.812 203.229 151.421 203.488 151.201C205.372 149.607 207.398 148.113 209.511 146.759C209.798 146.575 210.179 146.659 210.363 146.946C210.547 147.233 210.464 147.614 210.177 147.798C208.109 149.122 206.127 150.585 204.285 152.143C204.168 152.241 204.029 152.288 203.886 152.288ZM216.308 144.301C216.077 144.301 215.857 144.173 215.751 143.95C215.603 143.643 215.734 143.272 216.04 143.127C218.22 142.082 220.541 141.124 222.938 140.276C223.259 140.162 223.613 140.332 223.727 140.653C223.841 140.973 223.671 141.327 223.351 141.441C220.996 142.275 218.716 143.217 216.576 144.242C216.489 144.284 216.4 144.304 216.308 144.304V144.301ZM230.229 139.34C229.953 139.34 229.702 139.153 229.63 138.875C229.546 138.543 229.747 138.208 230.076 138.125C232.389 137.537 234.839 137.013 237.358 136.567C237.692 136.508 238.013 136.731 238.074 137.069C238.133 137.403 237.91 137.723 237.573 137.785C235.084 138.225 232.662 138.741 230.379 139.323C230.329 139.337 230.276 139.343 230.226 139.343L230.229 139.34ZM244.794 136.729C244.484 136.729 244.217 136.497 244.181 136.182C244.142 135.842 244.384 135.538 244.721 135.497C247.062 135.226 249.554 134.995 252.126 134.817C252.466 134.792 252.762 135.048 252.784 135.391C252.809 135.731 252.553 136.026 252.213 136.049C249.657 136.227 247.185 136.453 244.863 136.723C244.838 136.723 244.816 136.726 244.791 136.726L244.794 136.729ZM296.606 135.895H296.601C293.825 135.87 291.177 135.798 289.182 135.739C288.842 135.728 288.574 135.444 288.583 135.104C288.594 134.764 288.87 134.502 289.218 134.505C291.208 134.563 293.844 134.636 296.612 134.661C296.952 134.663 297.228 134.942 297.222 135.285C297.219 135.625 296.943 135.895 296.606 135.895ZM304.014 135.831C303.682 135.831 303.406 135.566 303.398 135.232C303.387 134.892 303.657 134.608 303.997 134.597C306.637 134.518 309.047 134.382 311.363 134.176C311.706 134.145 312.001 134.396 312.032 134.736C312.063 135.076 311.812 135.374 311.472 135.405C309.134 135.611 306.701 135.75 304.036 135.828C304.031 135.828 304.025 135.828 304.017 135.828L304.014 135.831ZM259.573 135.667C259.241 135.667 258.968 135.405 258.957 135.07C258.946 134.73 259.211 134.443 259.551 134.432C261.842 134.351 264.269 134.293 266.972 134.256H266.981C267.318 134.256 267.594 134.527 267.597 134.867C267.602 135.207 267.329 135.488 266.986 135.491C264.294 135.527 261.875 135.583 259.592 135.667C259.584 135.667 259.579 135.667 259.57 135.667H259.573ZM281.796 135.513C281.796 135.513 281.785 135.513 281.78 135.513C279.857 135.463 278.343 135.438 277.014 135.438L276.897 134.822V135.438L274.391 135.441C274.051 135.441 273.775 135.165 273.775 134.825C273.775 134.485 274.051 134.206 274.391 134.206H276.9L277.017 134.204C278.354 134.204 279.879 134.226 281.813 134.279C282.153 134.287 282.423 134.571 282.415 134.911C282.407 135.246 282.131 135.513 281.799 135.513H281.796ZM318.763 134.463C318.467 134.463 318.208 134.251 318.155 133.953C318.097 133.618 318.32 133.298 318.657 133.239C321.215 132.791 323.612 132.222 325.786 131.55C326.112 131.45 326.457 131.631 326.558 131.957C326.658 132.283 326.477 132.629 326.151 132.729C323.927 133.418 321.48 133.997 318.871 134.454C318.835 134.46 318.799 134.463 318.763 134.463ZM332.815 129.962C332.594 129.962 332.38 129.842 332.268 129.633C332.109 129.332 332.224 128.958 332.525 128.8C334.771 127.61 336.75 126.208 338.411 124.636C338.659 124.402 339.049 124.413 339.283 124.661C339.517 124.909 339.506 125.299 339.258 125.533C337.516 127.18 335.445 128.649 333.102 129.892C333.01 129.942 332.909 129.965 332.812 129.965L332.815 129.962ZM343.291 119.842C343.193 119.842 343.096 119.82 343.004 119.77C342.703 119.611 342.586 119.238 342.747 118.937C343.826 116.894 344.612 114.608 345.083 112.145C345.147 111.81 345.47 111.59 345.805 111.654C346.139 111.718 346.359 112.042 346.295 112.376C345.799 114.96 344.974 117.359 343.84 119.511C343.728 119.72 343.517 119.839 343.294 119.839L343.291 119.842Z" fill="black"/>
</g>
<defs>
<clipPath id="clip0_42_7425">
<rect width="480" height="510.016" fill="white"/>
</clipPath>
</defs>
</svg>
